<svg width="512" height="512" viewBox="0 0 512 512" fill="none" xmlns="http://www.w3.org/2000/svg">
<path fill-rule="evenodd" clip-rule="evenodd" d="M113.432 53.7728C106.455 55.9043 99.6055 61.8228 96.009 68.8281C93.5945 73.5292 71.3041 125.029 71.3041 125.906C71.3041 126.276 84.2207 126.482 100.009 126.362L128.713 126.144L132.987 91.4318C135.337 72.3399 137.288 55.8828 137.324 54.8596L137.386 53L126.442 53.0711C120.422 53.1099 114.567 53.4256 113.432 53.7728ZM149.777 54.2017C149.777 54.8629 147.918 70.6869 145.647 89.3656C143.375 108.044 141.517 124.054 141.517 124.943V126.558H200.991L201.006 123.872C201.014 122.395 201.563 108.912 202.226 93.9113C202.89 78.9105 203.441 63.5692 203.451 59.8185L203.469 53H149.777V54.2017ZM215.147 79.6543C214.597 94.3146 213.917 110.865 213.638 116.433L213.129 126.558H272.855L272.837 122.219C272.827 119.832 272.278 105.42 271.616 90.1921C270.955 74.964 270.405 60.3665 270.395 57.7523L270.377 53H216.148L215.147 79.6543ZM282.786 58.1656C282.796 61.007 283.345 75.7905 284.007 91.0185C284.668 106.247 285.218 120.473 285.228 122.632L285.246 126.558H344.72V124.424C344.72 123.25 342.861 107.028 340.59 88.3754C338.318 69.7224 336.46 54.1323 336.46 53.7306C336.46 53.3223 324.607 53 309.614 53H282.768L282.786 58.1656ZM349.164 56.5126C349.44 58.4441 351.348 74.1581 353.405 91.4318C355.461 108.705 357.328 123.676 357.555 124.698L357.968 126.558H386.45C402.281 126.558 414.932 126.234 414.932 125.831C414.932 124.058 390.661 68.9537 388.488 65.7941C384.778 60.3987 378.877 55.6299 374.186 54.2356C371.431 53.4174 366.42 53 359.345 53H348.662L349.164 56.5126ZM68.826 140.286C68.826 141.018 70.0072 143.833 71.4503 146.543C80.6928 163.893 103.551 167.872 117.908 154.632C122.178 150.694 124.443 147.345 126.195 142.377L127.401 138.955H68.826V140.286ZM141.517 140.204C141.517 143.031 145.447 149.575 149.746 153.904L154.332 158.522L164.232 162.321H176.623L181.333 160.511C189.125 157.518 196.079 150.333 198.885 142.377L200.091 138.955H141.517V140.204ZM214.207 140.247C214.207 140.958 215.212 143.593 216.442 146.104C219.335 152.017 226.022 158.134 232.176 160.497L236.923 162.321H249.313L254.023 160.511C261.815 157.518 268.77 150.333 271.576 142.377L272.782 138.955H214.207V140.247ZM286.898 140.39C286.898 143.344 291.524 150.814 295.747 154.676C298.309 157.017 302.087 159.43 304.866 160.497L309.614 162.321H322.004L326.714 160.511C334.506 157.518 341.46 150.333 344.266 142.377L345.472 138.955H286.898V140.39ZM360.042 142.377C362.848 150.333 369.802 157.518 377.594 160.511L382.304 162.321H394.695L399.442 160.497C402.221 159.43 406 157.017 408.561 154.676C412.784 150.814 417.41 143.344 417.41 140.39V138.955H358.836L360.042 142.377ZM130.87 159.081C122.902 169.722 105.879 176.716 93.1319 174.586C90.4399 174.135 87.0301 173.513 85.5531 173.201L82.8685 172.634V307.559H124.068L124.611 303.633C126.474 290.156 130.923 280.924 139.85 272.02C143.267 268.611 147.583 264.994 149.441 263.983L152.818 262.144L155.633 264.256C164.324 270.77 174.388 274.021 185.709 273.97L193.969 273.934L200.562 271.679C204.187 270.439 209.577 267.805 212.539 265.826L217.923 262.228L221.228 264.022C223.046 265.009 227.355 268.606 230.805 272.017L237.079 278.219L240.526 285.244C243.675 291.66 246.372 301.04 246.408 305.699L246.422 307.559H264.238L265.209 297.434C268.631 261.721 289.819 232.275 322.409 217.938C335.769 212.061 349.753 209.542 364.909 210.284C378.006 210.927 386.801 213.137 402.335 219.692L403.368 220.128V172.648L401.509 173.166C400.487 173.45 396.998 174.065 393.756 174.533C385.472 175.727 378.191 174.459 369.825 170.367L363.126 167.092L352.154 155.454L341.182 167.092L334.484 170.372C330.116 172.513 325.704 173.966 321.798 174.551L315.809 175.448L309.82 174.551C305.914 173.966 301.502 172.513 297.134 170.372L290.436 167.092L279.464 155.454L268.491 167.092L261.793 170.372C257.425 172.513 253.013 173.966 249.107 174.551L243.118 175.448L237.13 174.551C233.223 173.966 228.811 172.513 224.443 170.372L217.745 167.092L206.583 155.253L204.434 158.055C195.867 169.224 179.49 176.531 166.711 174.887C155.51 173.447 146.828 169.058 139.487 161.124C136.617 158.023 134.11 155.485 133.916 155.485C133.722 155.485 132.352 157.103 130.87 159.081ZM175.384 190.696C165.49 193.345 156.592 201.001 151.953 210.86L149.425 216.232L148.761 231.356L150.55 236.735C154.914 249.856 165.594 258.851 179.72 261.304L185.296 262.271L190.872 261.333C215.564 257.174 228.842 231.776 217.946 209.545C210.346 194.039 192.469 186.122 175.384 190.696ZM345.822 223.599C328.619 226.882 314.313 234.371 301.942 246.568C290.795 257.56 283.167 271.061 279.301 286.643L277.495 293.922V317.064L279.301 324.343C285.119 347.789 300.2 367.44 320.955 378.616C355.276 397.096 398.995 388.745 423.66 358.998C436.355 343.688 442.99 325.472 443 305.906C443.006 294.882 441.974 288.494 438.573 278.501C429.774 252.649 408.436 232.629 381.864 225.295L374.044 223.137L362.892 222.803C355.56 222.584 349.714 222.857 345.822 223.599ZM354.219 241.554C328.544 243.374 306.491 261.592 298.332 287.723L296.397 293.922V317.064L298.332 323.227C304.443 342.701 317.503 357.365 335.477 364.934C354.861 373.097 379.145 370.61 396.537 358.681C408.96 350.158 418.552 336.519 422.524 321.728L424.219 315.411V295.575L422.524 289.257C418.58 274.573 408.921 260.78 396.76 252.468C384.316 243.963 370.443 240.403 354.219 241.554ZM68 324.788V452.653L69.206 454.377C69.8693 455.324 71.4495 456.527 72.7166 457.05L75.0212 458L414.249 457.567L418.236 452.929V417.436C418.236 397.915 418.077 381.943 417.882 381.943C417.687 381.943 415.209 383.484 412.375 385.367C393.133 398.155 367.531 403.595 345.035 399.674C338.696 398.57 331.047 396.688 327.58 395.379L326.547 394.99V406.62L323.951 409.217H162.285L159.689 406.62V389.268C159.689 378.888 160.033 371.274 160.544 370.318L161.399 368.719H224.561C259.301 368.719 287.724 368.517 287.724 368.27C287.724 368.022 285.835 365.326 283.525 362.278C275.978 352.315 266.247 329.592 266.247 321.93V319.956H72.829L68 324.788Z" fill="#A7AAAD"/>
<path fill-rule="evenodd" clip-rule="evenodd" d="M360.711 259.159C348.478 271.401 347.798 279.542 358.54 285.106C369.135 290.594 380.984 285.979 380.984 276.363C380.984 271.412 372.949 248.878 371.318 249.257C370.805 249.377 366.032 253.831 360.711 259.159ZM354.39 272.14C352.392 274.141 355.101 280.497 358.796 282.477C363.369 284.929 365.995 282.645 361.5 280.127C359.67 279.101 357.571 276.635 356.837 274.645C356.102 272.655 355.002 271.529 354.39 272.14Z" fill="#DE0A8C"/>
<path d="M335.647 352.865C334.2 350.521 345.754 296.21 348.008 294.757C350.921 292.881 373.516 293.047 376.539 294.967L379.004 296.533L374.165 321.243C371.504 334.835 368.546 347.826 367.591 350.109L365.859 354.263H351.183C343.113 354.263 336.12 353.633 335.647 352.865Z" fill="#A7AAAD"/>
</svg>
